<?xml version="1.0" encoding="utf-8"?>
<!-- Generator: Adobe Illustrator 18.1.1, SVG Export Plug-In . SVG Version: 6.00 Build 0)  -->
<!DOCTYPE svg PUBLIC "-//W3C//DTD SVG 1.1//EN" "http://www.w3.org/Graphics/SVG/1.1/DTD/svg11.dtd">
<svg version="1.1" id="Layer_1" xmlns="http://www.w3.org/2000/svg" xmlns:xlink="http://www.w3.org/1999/xlink" x="0px" y="0px"
	 width="512px" height="512px" viewBox="-223 25 512 512" enable-background="new -223 25 512 512" xml:space="preserve">
<path d="M100,179.9c-2.2-8.3-8.7-14.1-16.2-14.6c-1.8-0.1-3.5,0.1-5.2,0.6l-112.5,34.7c-4.2,1.3-7.8,4.3-10,8.7l-0.1,0.1
	c-3.5,4.7-8.2,28.7-8.2,28.7c-1.5,15.1,5.9,28.5,20.6,29.3c10.8,0.6,17-10.4,18.6-25.5l1.1-7.1l100.5-31.1
	C97.6,201.1,102.8,190.3,100,179.9z"/>
<path d="M29.2,151.9c20,7.3,40.9-5.6,46.6-28.7c5.7-23.1-6-47.7-26-55c-20-7.3-40.9,5.6-46.6,28.7C-2.5,120,9.2,144.6,29.2,151.9z"
	/>
<path d="M-8.3,238.7l-1.2,7.1c-0.7,5.1-2.4,16.4-7.6,20.5l-2.1,51.1c0.1,3.2-13,131.6-13,131.6c-1.9,17.2-0.1,31.2,13.5,37
	c13.6,5.8,33.5-0.4,35.9-16.1c5.1-33.6,16.3-150,16.3-150l-1.4,161c0,15.9,12.9,28.8,28.8,28.8c15.9,0,28.3-12.9,28.3-28.8
	l-2.2-150.9l0.6-60.8l-0.5-60.4c-1.4,1.1-3.1,1.9-4.8,2.4L-8.3,238.7z"/>
<path d="M-46.8,205l0.1-0.1c2.3-4.3,9.7-8.5,13.8-9.6L76.2,164c0.4-0.1,0.8-0.2,1.1-0.3H-9.2c-0.2,0-0.3,0-0.5,0
	c-1-0.1-2.1,0-3.1,0.1l-80.9,10c-10.2,1-18,8.7-18.8,17.9c-0.8,2.5-3.3,18.6-3.3,18.6c-1.4,14.6,5.9,27.3,16.5,28.3
	c13.9,0.1,23.1-10,24.5-24.6l0.5-3.3l26.4-4.2C-47.5,206-47.2,205.5-46.8,205z"/>
</svg>
