<?xml version="1.0" encoding="utf-8"?>
<!-- Generator: Adobe Illustrator 18.0.0, SVG Export Plug-In . SVG Version: 6.00 Build 0)  -->
<!DOCTYPE svg PUBLIC "-//W3C//DTD SVG 1.1//EN" "http://www.w3.org/Graphics/SVG/1.1/DTD/svg11.dtd">
<svg version="1.1" id="Layer_1" xmlns="http://www.w3.org/2000/svg" xmlns:xlink="http://www.w3.org/1999/xlink" x="0px" y="0px"
	 width="82.3px" height="82.3px" viewBox="0 0 82.3 82.3" enable-background="new 0 0 82.3 82.3" xml:space="preserve">
<g>
	<path opacity="0.9" fill="#DEA926" d="M41.2,0C18.5,0,0,18.5,0,41.2s18.5,41.2,41.2,41.2s41.2-18.5,41.2-41.2S63.8,0,41.2,0z
		 M41.2,79.3C20.1,79.3,3,62.2,3,41.2S20.1,3,41.2,3s38.2,17.1,38.2,38.2S62.2,79.3,41.2,79.3z"/>
	<path fill="#DEA926" d="M41.2,7.2C22.4,7.2,7.2,22.4,7.2,41.2c0,18.7,15.2,33.9,33.9,33.9c18.7,0,33.9-15.2,33.9-33.9
		C75.1,22.4,59.9,7.2,41.2,7.2z M63.6,45.2H17v-8.1h46.6V45.2z"/>
</g>
</svg>
