<?xml version="1.0" encoding="utf-8"?>
<!-- Generator: Adobe Illustrator 18.0.0, SVG Export Plug-In . SVG Version: 6.00 Build 0)  -->
<!DOCTYPE svg PUBLIC "-//W3C//DTD SVG 1.1//EN" "http://www.w3.org/Graphics/SVG/1.1/DTD/svg11.dtd">
<svg version="1.1" id="Layer_1" xmlns="http://www.w3.org/2000/svg" xmlns:xlink="http://www.w3.org/1999/xlink" x="0px" y="0px"
	 width="82.3px" height="82.3px" viewBox="0 0 82.3 82.3" enable-background="new 0 0 82.3 82.3" xml:space="preserve">
<g opacity="0.9">
	<path fill="#DEA926" d="M41.2,82.3C18.5,82.3,0,63.9,0,41.2S18.5,0,41.2,0s41.2,18.5,41.2,41.2S63.9,82.3,41.2,82.3z M41.2,3
		C20.1,3,3,20.1,3,41.2s17.1,38.2,38.2,38.2s38.2-17.1,38.2-38.2S62.2,3,41.2,3z"/>
</g>
<g>
	<circle fill="#DEA926" cx="41.2" cy="41.2" r="33.9"/>
</g>
<g>
	<rect x="24.9" y="20.8" fill="#F7F7F8" width="32" height="40"/>
</g>
<g opacity="0.5">
	<path fill="#323233" d="M50.9,29.8h-20c-0.6,0-1-0.4-1-1s0.4-1,1-1h20c0.6,0,1,0.4,1,1S51.4,29.8,50.9,29.8z"/>
</g>
<g opacity="0.5">
	<path fill="#323233" d="M50.9,37.8h-20c-0.6,0-1-0.4-1-1s0.4-1,1-1h20c0.6,0,1,0.4,1,1S51.4,37.8,50.9,37.8z"/>
</g>
<g opacity="0.5">
	<path fill="#323233" d="M50.9,45.8h-20c-0.6,0-1-0.4-1-1s0.4-1,1-1h20c0.6,0,1,0.4,1,1S51.4,45.8,50.9,45.8z"/>
</g>
<g opacity="0.5">
	<path fill="#323233" d="M50.9,53.8h-20c-0.6,0-1-0.4-1-1s0.4-1,1-1h20c0.6,0,1,0.4,1,1S51.4,53.8,50.9,53.8z"/>
</g>
</svg>
