<?xml version="1.0" encoding="UTF-8"?><!DOCTYPE svg PUBLIC "-//W3C//DTD SVG 1.1//EN" "http://www.w3.org/Graphics/SVG/1.1/DTD/svg11.dtd"><svg xmlns="http://www.w3.org/2000/svg" xmlns:xlink="http://www.w3.org/1999/xlink" xmlns:svgjs="http://svgjs.com/svgjs"><symbol id="alerts" viewBox="0 0 14 16"><path id="SvgjsPath1031" d="M1060.2 16.63C1059.75 16.380699999999997 1059.47 15.916699999999999 1059.47 15.416699999999999L1059.47 15.414699999999998C1059.47 14.633299999999998 1058.81 13.999999999999998 1058 13.999999999999998C1057.19 13.999999999999998 1056.53 14.633299999999998 1056.53 15.414699999999998L1056.53 15.416699999999999C1056.53 15.9173 1056.25 16.380699999999997 1055.8 16.63C1052.54 18.438 1054.4099999999999 24.439999999999998 1051 25.5007L1051 26.6667L1065 26.6667L1065 25.5007C1061.59 24.439999999999998 1063.46 18.438 1060.2 16.63ZM1058 14.6667C1058.39 14.6667 1058.7 14.966000000000001 1058.7 15.333300000000001C1058.7 15.701300000000002 1058.39 16 1058 16C1057.61 16 1057.3 15.7013 1057.3 15.3333C1057.3 14.966 1057.61 14.666699999999999 1058 14.666699999999999ZM1060.1 28C1060.1 29.0653 1059.1299999999999 30 1058.02 30C1056.91 30 1055.9 29.0653 1055.9 28Z " transform="matrix(1,0,0,1,-1051,-14)"/></symbol><symbol id="arrow" viewBox="0 0 16 18"><path id="SvgjsPath1007" d="M983.721 1887.28L983.721 1887.28L986.423 1890L986.423 1890L986.423 1890L983.721 1892.72L983.721 1892.72L978.318 1898.17L975.617 1895.45L979.115 1891.92L971.443 1891.92L971.443 1888.0700000000002L979.103 1888.0700000000002L975.617 1884.5500000000002L978.318 1881.8300000000002Z " transform="matrix(1,0,0,1,-971,-1881)"/></symbol><symbol id="blog" viewBox="0 0 32 30"><path id="SvgjsPath1022" d="M374.967 594L374.967 624L405.21 624L405.21 594ZM389.267 619C389.216 613.964 385.091 609.877 380.008 609.826L380.008 605.817C387.334 605.869 393.262 611.741 393.315 619ZM382.74 619C381.231 619 380.008 617.789 380.008 616.294C380.008 614.799 381.231 613.587 382.74 613.587C384.248 613.587 385.47 614.799 385.47 616.294C385.47 617.789 384.24800000000005 619 382.74 619ZM396.124 619C396.09700000000004 610.171 388.89500000000004 603.049 380.00800000000004 603.01L380.00800000000004 599C391.13500000000005 599.039 400.14500000000004 607.974 400.17 619Z " transform="matrix(1,0,0,1,-374,-594)"/></symbol><symbol id="building" viewBox="0 0 16 16"><path id="SvgjsPath1028" d="M1169.73 14.5924L1169.73 13L1168.27 13L1168.27 14.5924C1166.21 14.9558 1164.6399999999999 16.8309 1164.6399999999999 19.0952L1173.36 19.0952C1173.36 16.8309 1171.79 14.955799999999998 1169.7299999999998 14.592399999999998ZM1176.27 24.4286L1174.09 24.4286L1174.09 21.381C1174.09 20.9604 1173.77 20.619 1173.36 20.619L1164.6399999999999 20.619C1164.2299999999998 20.619 1163.9099999999999 20.9604 1163.9099999999999 21.381L1163.9099999999999 24.4286L1161.7299999999998 24.4286C1161.3299999999997 24.4286 1160.9999999999998 24.7699 1160.9999999999998 25.1905L1160.9999999999998 28.2381C1160.9999999999998 28.659399999999998 1161.3299999999997 29 1161.7299999999998 29L1176.2699999999998 29C1176.6699999999998 29 1176.9999999999998 28.6594 1176.9999999999998 28.2381L1176.9999999999998 25.1905C1176.9999999999998 24.7699 1176.6699999999998 24.4286 1176.2699999999998 24.4286ZM1163.91 27.4762L1162.45 27.4762L1162.45 25.952399999999997L1163.91 25.952399999999997ZM1166.82 27.4762L1165.36 27.4762L1165.36 25.952399999999997L1166.82 25.952399999999997ZM1166.82 23.6667L1165.36 23.6667L1165.36 22.142899999999997L1166.82 22.142899999999997ZM1169.73 27.4762L1168.27 27.4762L1168.27 25.952399999999997L1169.73 25.952399999999997ZM1169.73 23.6667L1168.27 23.6667L1168.27 22.142899999999997L1169.73 22.142899999999997ZM1172.64 27.4762L1171.18 27.4762L1171.18 25.952399999999997L1172.64 25.952399999999997ZM1172.64 23.6667L1171.18 23.6667L1171.18 22.142899999999997L1172.64 22.142899999999997ZM1175.55 27.4762L1174.09 27.4762L1174.09 25.952399999999997L1175.55 25.952399999999997Z " transform="matrix(1,0,0,1,-1161,-13)"/></symbol><symbol id="circle-chevron" viewBox="0 0 35 35">
<path class="st0" d="M17.5,35C7.8,35,0,27.2,0,17.5C0,7.8,7.8,0,17.5,0C27.2,0,35,7.8,35,17.5C35,27.2,27.2,35,17.5,35z M16,9
	l-3,2.9l5.1,5.1L13,22.1l3,2.9l8-8L16,9z"/>
</symbol><symbol id="doc-docx" viewBox="0 0 35 37"><path id="SvgjsPath1013" d="M404.582 7131.94C404.179 7131.94 403.875 7132.08 403.63 7132.379999999999C403.375 7132.699999999999 403.24399999999997 7133.219999999999 403.24399999999997 7133.909999999999C403.24399999999997 7134.5999999999985 403.37899999999996 7135.109999999999 403.642 7135.439999999999C403.897 7135.749999999999 404.193 7135.8899999999985 404.582 7135.8899999999985C404.968 7135.8899999999985 405.264 7135.749999999998 405.51099999999997 7135.439999999999C405.77399999999994 7135.119999999999 405.905 7134.5999999999985 405.905 7133.8899999999985C405.905 7133.199999999999 405.77799999999996 7132.689999999999 405.52299999999997 7132.369999999998C405.28499999999997 7132.079999999998 404.984 7131.939999999998 404.582 7131.939999999998ZM396.355 7135.9C396.91400000000004 7135.9 397.348 7135.73 397.644 7135.41C397.96500000000003 7135.05 398.13100000000003 7134.51 398.13100000000003 7133.79C398.13500000000005 7133.15 397.97700000000003 7132.66 397.66600000000005 7132.34C397.38700000000006 7132.06 396.99000000000007 7131.91 396.4800000000001 7131.91C396.3690000000001 7131.91 396.2770000000001 7131.92 396.19900000000007 7131.92L396.19900000000007 7135.9C396.2460000000001 7135.9 396.28900000000004 7135.9 396.3280000000001 7135.9ZM424.185 7127.21L421.033 7127.21L421.033 7122.42C421.033 7122.41 421.029 7122.4 421.029 7122.38C421.027 7122.35 421.025 7122.31 421.019 7122.27C421.012 7122.25 421.005 7122.22 420.994 7122.1900000000005C420.98800000000006 7122.17 420.98400000000004 7122.150000000001 420.97600000000006 7122.13C420.9630000000001 7122.1 420.94700000000006 7122.07 420.93000000000006 7122.05C420.9220000000001 7122.03 420.91600000000005 7122.02 420.90600000000006 7122C420.87700000000007 7121.96 420.84600000000006 7121.92 420.8090000000001 7121.88L413.2540000000001 7114.22C413.25200000000007 7114.22 413.2480000000001 7114.22 413.24700000000007 7114.22C413.2130000000001 7114.18 413.1790000000001 7114.150000000001 413.13900000000007 7114.13C413.1190000000001 7114.11 413.09600000000006 7114.11 413.0760000000001 7114.09C413.05300000000005 7114.08 413.0320000000001 7114.07 413.0080000000001 7114.06C412.9810000000001 7114.05 412.9550000000001 7114.04 412.9280000000001 7114.030000000001C412.9070000000001 7114.030000000001 412.8870000000001 7114.02 412.8660000000001 7114.01C412.8190000000001 7114 412.7690000000001 7114 412.7200000000001 7114L395.71600000000007 7114C395.29800000000006 7114 394.96100000000007 7114.34 394.96100000000007 7114.76L394.96100000000007 7127.21L391.8060000000001 7127.21C391.3560000000001 7127.21 390.9900000000001 7127.59 390.9920000000001 7128.04L390.9920000000001 7139.79C390.9920000000001 7140.26 391.3620000000001 7140.62 391.8140000000001 7140.62L394.95900000000006 7140.62L394.95900000000006 7149.24C394.95900000000006 7149.66 395.29800000000006 7150.01 395.71400000000006 7150.01L420.27700000000004 7150.01C420.694 7150.01 421.033 7149.66 421.033 7149.24L421.033 7140.62L424.185 7140.62C424.635 7140.62 425 7140.25 425 7139.79L425 7128.04C425 7127.59 424.635 7127.21 424.185 7127.21ZM396.47 7115.53L411.96400000000006 7115.53L411.96400000000006 7122.42C411.96400000000006 7122.85 412.30300000000005 7123.1900000000005 412.72 7123.1900000000005L419.52200000000005 7123.1900000000005L419.52200000000005 7127.210000000001L396.47 7127.210000000001ZM419.522 7148.47L396.46999999999997 7148.47L396.46999999999997 7140.62L419.522 7140.62ZM419.465 7137.75L418.39 7135.9L417.31 7137.75L414.733 7137.75L417.092 7133.77L414.93399999999997 7130.09L417.47499999999997 7130.09L418.412 7131.75L419.33299999999997 7130.09L421.85799999999995 7130.09L419.6929999999999 7133.82L422.0589999999999 7137.75ZM408.033 7133.93C408.033 7135.150000000001 407.719 7136.12 407.10400000000004 7136.83C406.47300000000007 7137.55 405.62600000000003 7137.92 404.58400000000006 7137.92C403.53400000000005 7137.92 402.68000000000006 7137.55 402.05100000000004 7136.83C401.434 7136.13 401.12000000000006 7135.16 401.12000000000006 7133.96C401.12000000000006 7133.2 401.2270000000001 7132.55 401.43600000000004 7132.02C401.59700000000004 7131.63 401.819 7131.27 402.09400000000005 7130.950000000001C402.37800000000004 7130.630000000001 402.69900000000007 7130.39 403.04200000000003 7130.2300000000005C403.48400000000004 7130.02 403.99800000000005 7129.92 404.56500000000005 7129.92C405.6120000000001 7129.92 406.46100000000007 7130.28 407.09600000000006 7131.01C407.71700000000004 7131.71 408.0330000000001 7132.7 408.0330000000001 7133.93ZM394.26 7137.81L393.937 7137.76L393.937 7130.13L394.248 7130.07C394.805 7129.969999999999 395.572 7129.92 396.32599999999996 7129.92C397.61299999999994 7129.92 398.503 7130.18 399.20199999999994 7130.76C400.0059999999999 7131.42 400.4289999999999 7132.45 400.4289999999999 7133.74C400.4289999999999 7135.429999999999 399.7819999999999 7136.389999999999 399.2369999999999 7136.9C398.5009999999999 7137.58 397.4119999999999 7137.92 396.0079999999999 7137.92C395.37799999999993 7137.92 394.75999999999993 7137.88 394.25999999999993 7137.81ZM412.609 7135.85C413.006 7135.85 413.438 7135.75 413.65999999999997 7135.650000000001L414.09299999999996 7135.460000000001L414.441 7137.4400000000005L414.207 7137.570000000001C413.902 7137.740000000001 413.265 7137.920000000001 412.393 7137.920000000001C410.14 7137.920000000001 408.68499999999995 7136.390000000001 408.68499999999995 7134.020000000001C408.68499999999995 7131.560000000001 410.23299999999995 7129.910000000002 412.53499999999997 7129.910000000002C413.361 7129.910000000002 413.98199999999997 7130.100000000001 414.28599999999994 7130.270000000001L414.53099999999995 7130.410000000002L414.06899999999996 7132.4000000000015L413.65799999999996 7132.210000000002C413.33299999999997 7132.060000000002 412.977 7131.980000000002 412.60299999999995 7131.980000000002C411.54999999999995 7131.980000000002 410.94399999999996 7132.690000000002 410.94399999999996 7133.930000000002C410.94199999999995 7135.150000000002 411.54999999999995 7135.850000000002 412.609 7135.850000000002ZM413.477 7116.61L418.453 7121.66L413.477 7121.66Z " transform="matrix(1,0,0,1,-390,-7114)"/></symbol><symbol id="doc-pdf" viewBox="0 0 35 36"><path id="SvgjsPath1007" d="M423.185 7038.21L420.033 7038.21L420.033 7033.43C420.033 7033.41 420.029 7033.400000000001 420.029 7033.39C420.027 7033.35 420.025 7033.31 420.019 7033.280000000001C420.012 7033.250000000001 420.005 7033.22 419.994 7033.200000000001C419.98800000000006 7033.18 419.98400000000004 7033.160000000001 419.97600000000006 7033.130000000001C419.96400000000006 7033.110000000001 419.94700000000006 7033.080000000001 419.93000000000006 7033.050000000001C419.9220000000001 7033.030000000001 419.91600000000005 7033.020000000001 419.90600000000006 7033.000000000001C419.87700000000007 7032.960000000001 419.84600000000006 7032.920000000001 419.8090000000001 7032.880000000001L412.2540000000001 7025.230000000001C412.25200000000007 7025.230000000001 412.2480000000001 7025.220000000001 412.24700000000007 7025.220000000001C412.2130000000001 7025.190000000001 412.1790000000001 7025.160000000001 412.13900000000007 7025.130000000001C412.1190000000001 7025.120000000001 412.09600000000006 7025.110000000001 412.0760000000001 7025.100000000001C412.05300000000005 7025.080000000001 412.0320000000001 7025.0700000000015 412.0080000000001 7025.060000000001C411.9810000000001 7025.050000000001 411.9540000000001 7025.040000000001 411.9280000000001 7025.040000000001C411.9070000000001 7025.030000000001 411.8870000000001 7025.02 411.8660000000001 7025.02C411.8190000000001 7025.01 411.7690000000001 7025 411.7200000000001 7025L394.71600000000007 7025C394.29800000000006 7025 393.96100000000007 7025.35 393.96100000000007 7025.77L393.96100000000007 7038.21L390.8060000000001 7038.21C390.3560000000001 7038.21 389.9900000000001 7038.59 389.9920000000001 7039.04L389.9920000000001 7050.79C389.9920000000001 7051.25 390.3620000000001 7051.61 390.8140000000001 7051.61L393.95900000000006 7051.61L393.95900000000006 7060.23C393.95900000000006 7060.65 394.29800000000006 7061 394.7130000000001 7061L419.2770000000001 7061C419.6940000000001 7061 420.0330000000001 7060.65 420.0330000000001 7060.23L420.0330000000001 7051.61L423.18500000000006 7051.61C423.63500000000005 7051.61 424.00000000000006 7051.25 424.00000000000006 7050.79L424.00000000000006 7039.04C424.00000000000006 7038.59 423.63500000000005 7038.21 423.18500000000006 7038.21ZM395.47 7026.53L410.96400000000006 7026.53L410.96400000000006 7033.429999999999C410.96400000000006 7033.849999999999 411.30300000000005 7034.19 411.72 7034.19L418.52200000000005 7034.19L418.52200000000005 7038.21L395.47 7038.21ZM418.522 7059.46L395.46999999999997 7059.46L395.46999999999997 7051.61L418.522 7051.61ZM402.433 7043.4C402.433 7043.94 402.319 7044.42 402.097 7044.8099999999995C401.876 7045.19 401.58799999999997 7045.499999999999 401.236 7045.719999999999C400.899 7045.94 400.545 7046.079999999999 400.19 7046.159999999999C399.742 7046.239999999999 399.127 7046.279999999999 398.311 7046.279999999999L397.614 7046.279999999999L397.614 7049.249999999999L394.92499999999995 7049.249999999999L394.92499999999995 7040.579999999999L398.227 7040.579999999999C399.325 7040.579999999999 400.034 7040.629999999999 400.393 7040.719999999999C400.97099999999995 7040.849999999999 401.46 7041.159999999999 401.849 7041.619999999999C402.23699999999997 7042.089999999999 402.433 7042.679999999999 402.433 7043.399999999999ZM411.126 7044.72C411.126 7046.570000000001 410.41499999999996 7047.62 409.82099999999997 7048.18C409.01099999999997 7048.92 407.82 7049.3 406.28299999999996 7049.3C405.58799999999997 7049.3 404.90999999999997 7049.26 404.36299999999994 7049.18L404.00699999999995 7049.13L404.00699999999995 7040.76L404.34899999999993 7040.7C404.95899999999995 7040.59 405.79999999999995 7040.53 406.6259999999999 7040.53C408.0349999999999 7040.53 409.0089999999999 7040.82 409.77699999999993 7041.46C410.6619999999999 7042.18 411.1259999999999 7043.31 411.1259999999999 7044.72ZM418.666 7043.94L418.666 7045.94L415.348 7045.94L415.348 7049.25L412.773 7049.25L412.773 7040.58L419.069 7040.58L419.069 7042.79L415.35 7042.79L415.35 7043.94ZM412.477 7027.62L417.453 7032.66L412.477 7032.66ZM406.797 7042.72C406.67400000000004 7042.72 406.57300000000004 7042.7300000000005 406.48600000000005 7042.7300000000005L406.48600000000005 7047.080000000001C406.53800000000007 7047.080000000001 406.58700000000005 7047.080000000001 406.63000000000005 7047.080000000001L406.65700000000004 7047.080000000001C407.26800000000003 7047.080000000001 407.74500000000006 7046.900000000001 408.069 7046.550000000001C408.425 7046.160000000001 408.606 7045.560000000001 408.606 7044.780000000001C408.61 7044.070000000001 408.437 7043.540000000001 408.098 7043.1900000000005C407.79 7042.88 407.354 7042.72 406.797 7042.72ZM399.185 7042.76C399.061 7042.74 398.755 7042.71 398.019 7042.71L397.616 7042.71L397.616 7044.15L398.13399999999996 7044.15C398.979 7044.15 399.26099999999997 7044.08 399.34299999999996 7044.049999999999C399.491 7043.999999999999 399.602 7043.919999999999 399.68399999999997 7043.8099999999995C399.76199999999994 7043.7 399.80499999999995 7043.57 399.80499999999995 7043.419999999999C399.80499999999995 7043.23 399.74799999999993 7043.089999999999 399.643 7042.98C399.52 7042.86 399.37199999999996 7042.79 399.18499999999995 7042.759999999999Z " transform="matrix(1,0,0,1,-389,-7025)"/></symbol><symbol id="doc-xlsx" viewBox="0 0 36 37"><path id="SvgjsPath1016" d="M395.631 7176.53L411.58 7176.53L411.58 7183.42C411.58 7183.85 411.93 7184.1900000000005 412.359 7184.1900000000005L419.361 7184.1900000000005L419.361 7188.210000000001L395.631 7188.210000000001ZM419.361 7209.47L395.631 7209.47L395.631 7201.62L419.361 7201.62ZM417.256 7196.85L416.17199999999997 7198.650000000001L413.58599999999996 7198.650000000001L415.95399999999995 7194.780000000001L413.78499999999997 7191.1900000000005L416.33299999999997 7191.1900000000005L417.275 7192.81L418.197 7191.1900000000005L420.73 7191.1900000000005L418.559 7194.820000000001L420.934 7198.650000000001L418.333 7198.650000000001ZM396.426 7194.78L394.259 7191.19L396.80600000000004 7191.19L397.747 7192.8099999999995L398.67 7191.19L401.20300000000003 7191.19L399.03200000000004 7194.82L401.40600000000006 7198.65L398.80500000000006 7198.65L397.72800000000007 7196.849999999999L396.64500000000004 7198.65L394.059 7198.65ZM410.209 7195.84C408.89300000000003 7195.33 408.228 7194.51 408.228 7193.41C408.228 7191.94 409.371 7190.92 411.01300000000003 7190.92C411.764 7190.92 412.60200000000003 7191.14 413.04400000000004 7191.36L413.326 7191.5L412.793 7193.4L412.365 7193.17C412.158 7193.06 411.622 7192.88 411.081 7192.88C410.62800000000004 7192.88 410.594 7193.18 410.594 7193.28C410.594 7193.429999999999 410.594 7193.54 411.48699999999997 7193.92C412.76699999999994 7194.4400000000005 413.36799999999994 7195.22 413.36799999999994 7196.36C413.36799999999994 7197.54 412.59599999999995 7198.92 410.42499999999995 7198.92C409.61599999999993 7198.92 408.59399999999994 7198.64 408.18399999999997 7198.39L407.96599999999995 7198.25L408.2939999999999 7196.29L408.7779999999999 7196.56C409.0999999999999 7196.740000000001 409.8509999999999 7196.950000000001 410.41399999999993 7196.950000000001C410.8019999999999 7196.950000000001 411.03399999999993 7196.77 411.03399999999993 7196.470000000001C411.02799999999996 7196.340000000001 411.02799999999996 7196.160000000001 410.20899999999995 7195.840000000001ZM407.195 7196.65L407.195 7198.79L402.039 7198.79L402.039 7191.06L404.407 7191.06L404.407 7196.650000000001ZM413.138 7177.61L418.26099999999997 7182.66L413.138 7182.66ZM424.161 7188.21L420.916 7188.21L420.916 7183.42C420.916 7183.41 420.913 7183.4 420.913 7183.38C420.91 7183.35 420.908 7183.31 420.902 7183.27C420.895 7183.25 420.887 7183.22 420.876 7183.1900000000005C420.87 7183.17 420.866 7183.150000000001 420.85699999999997 7183.13C420.84499999999997 7183.1 420.827 7183.07 420.811 7183.05C420.80199999999996 7183.03 420.796 7183.02 420.78499999999997 7183C420.756 7182.96 420.724 7182.92 420.686 7182.88L412.909 7175.22C412.907 7175.22 412.903 7175.22 412.901 7175.22C412.867 7175.18 412.831 7175.150000000001 412.79 7175.13C412.769 7175.11 412.74600000000004 7175.11 412.725 7175.09C412.702 7175.08 412.68 7175.07 412.65500000000003 7175.06C412.62800000000004 7175.05 412.6 7175.04 412.57300000000004 7175.030000000001C412.55100000000004 7175.030000000001 412.53000000000003 7175.02 412.509 7175.01C412.46000000000004 7175 412.409 7175 412.35900000000004 7175L394.85400000000004 7175C394.42500000000007 7175 394.07700000000006 7175.34 394.07700000000006 7175.76L394.07700000000006 7188.21L390.82900000000006 7188.21C390.36600000000004 7188.21 389.99000000000007 7188.59 389.9920000000001 7189.04L389.9920000000001 7200.79C389.9920000000001 7201.26 390.37300000000005 7201.62 390.8380000000001 7201.62L394.0760000000001 7201.62L394.0760000000001 7210.24C394.0760000000001 7210.66 394.42500000000007 7211.01 394.8520000000001 7211.01L420.1380000000001 7211.01C420.56700000000006 7211.01 420.9160000000001 7210.66 420.9160000000001 7210.24L420.9160000000001 7201.62L424.1610000000001 7201.62C424.62400000000014 7201.62 425.0000000000001 7201.25 425.0000000000001 7200.79L425.0000000000001 7189.04C425.0000000000001 7188.59 424.62400000000014 7188.21 424.1610000000001 7188.21Z " transform="matrix(1,0,0,1,-389,-7175)"/></symbol><symbol id="external-link" viewBox="0 0 17 16"><path id="SvgjsPath1007" d="M739.199 92.7986L739.199 80L735.9989999999999 80L735.9989999999999 95.9983L751.9979999999999 95.9983L751.9979999999999 92.7986ZM743.294 81.0032L743.305 83.5605L746.6049999999999 83.5737L742.9939999999999 87.1849L744.809 89.0001L748.4259999999999 85.3836L748.4399999999999 88.6956L750.997 88.7058L750.976 83.59129999999999L750.966 81.03389999999999L748.409 81.02349999999998L748.409 81.02369999999999Z " transform="matrix(1,0,0,1,-735,-80)"/></symbol><symbol id="facebook" viewBox="0 0 31 30"><path id="SvgjsPath1010" d="M159 594L159 624L189.243 624L189.243 594ZM179.162 602.75L176.739 602.75C175.963 602.75 175.382 603.065 175.382 603.861L175.382 605.25L179.162 605.25L178.86100000000002 609L175.382 609L175.382 619L171.601 619L171.601 609L169.081 609L169.081 605.25L171.601 605.25L171.601 602.846C171.601 600.319 172.942 599 175.963 599L179.162 599Z " transform="matrix(1,0,0,1,-159,-594)"/></symbol><symbol id="fax-icon" viewBox="0 0 40 36"><title>fax icon</title><desc>Created with Avocode.</desc><path id="SvgjsPath1007" d="M651.667 633.182L651.667 629.934C651.667 628.9699999999999 648.222 625 646.94 625L638.3330000000001 625L638.3330000000001 633.182L635.0000000000001 633.182L635.0000000000001 643L655.0000000000001 643L655.0000000000001 633.182ZM647.499 635.034L646.726 635.436C644.637 636.4490000000001 641.073 629.8960000000001 643.104 628.7750000000001L643.884 628.3670000000001L644.9730000000001 630.3760000000001L644.2020000000001 630.7790000000001C643.5900000000001 631.1280000000002 645.0130000000001 633.7510000000001 645.6410000000001 633.4280000000001L646.412 633.0270000000002ZM650 637.273L640 637.273L640 626.636L646.39 626.636C647.5459999999999 626.636 647.669 628.733 647.292 629.3979999999999C648.099 629.1809999999999 650 629.3089999999999 650 630.4029999999999Z " fill-opacity="1" transform="matrix(1,0,0,1,-635,-625)"/></symbol><symbol id="instagram" viewBox="0 0 31 30"><path id="SvgjsPath1025" d="M459 594L459 624L428.757 624L428.757 594ZM447.952 600.86C446.89 600.813 446.57 600.803 443.878 600.803C441.187 600.803 440.868 600.813 439.804 600.861C437.07 600.984 435.79699999999997 602.27 435.673 604.96C435.625 606.014 435.613 606.33 435.613 609C435.613 611.67 435.625 611.986 435.674 613.043C435.79699999999997 615.726 437.066 617.017 439.806 617.141C440.86699999999996 617.189 441.18699999999995 617.199 443.878 617.199C446.57099999999997 617.199 446.89 617.188 447.954 617.14C450.688 617.0169999999999 451.96000000000004 615.729 452.086 613.0409999999999C452.134 611.986 452.144 611.67 452.144 608.9999999999999C452.144 606.3299999999999 452.134 606.0139999999999 452.086 604.9599999999999C451.96000000000004 602.2699999999999 450.684 600.9839999999999 447.952 600.8599999999999ZM443.878 614.135C441.02 614.135 438.702 611.836 438.702 609C438.702 606.164 441.019 603.865 443.878 603.865C446.736 603.865 449.055 606.164 449.055 609C449.055 611.836 446.738 614.135 443.878 614.135ZM443.878 605.666C442.022 605.666 440.518 607.1590000000001 440.518 609C440.518 610.843 442.022 612.334 443.878 612.334C445.735 612.334 447.239 610.8409999999999 447.239 609C447.239 607.159 445.73499999999996 605.666 443.878 605.666ZM449.259 604.862C448.591 604.862 448.04900000000004 604.3249999999999 448.04900000000004 603.6619999999999C448.04900000000004 602.9999999999999 448.591 602.463 449.259 602.463C449.927 602.463 450.469 603 450.469 603.6619999999999C450.469 604.3249999999999 449.928 604.862 449.259 604.862ZM453.959 609C453.959 606.285 453.948 605.944 453.899 604.878C453.734 601.25 451.7 599.2280000000001 448.036 599.061C446.959 599.0110000000001 446.617 599 443.878 599C441.14 599 440.799 599.011 439.723 599.06C436.06100000000004 599.226 434.027 601.241 433.858 604.876C433.809 605.944 433.797 606.285 433.797 609C433.797 611.716 433.809 612.056 433.858 613.122C434.027 616.755 436.058 618.774 439.723 618.9399999999999C440.79900000000004 618.9889999999999 441.14 618.9999999999999 443.878 618.9999999999999C446.61699999999996 618.9999999999999 446.959 618.9889999999999 448.036 618.9399999999999C451.692 618.7739999999999 453.734 616.7589999999999 453.899 613.122C453.948 612.0559999999999 453.959 611.716 453.959 609Z " transform="matrix(1,0,0,1,-428,-594)"/></symbol><symbol id="laptop" viewBox="0 0 36 30"><path id="SvgjsPath1013" d="M424 1674L394 1674L394 1693.5L424 1693.5ZM421 1690.5L397 1690.5L397 1677L421 1677ZM424 1695L394 1695L391 1704L427 1704ZM405.658 1702.5L406.357 1701L411.64300000000003 1701L412.34200000000004 1702.5Z " transform="matrix(1,0,0,1,-391,-1674)"/></symbol><symbol id="linkedin" viewBox="0 0 31 30"><path id="SvgjsPath1016" d="M266.564 594L266.564 624L296.807 624L296.807 594ZM276.645 617.75L272.864 617.75L272.864 604L276.645 604ZM274.754 602.415C273.53700000000003 602.415 272.54900000000004 601.4269999999999 272.54900000000004 600.2099999999999C272.54900000000004 598.9929999999999 273.53700000000003 598.0049999999999 274.754 598.0049999999999C275.97200000000004 598.0049999999999 276.96000000000004 598.9929999999999 276.96000000000004 600.2099999999999C276.96000000000004 601.4269999999999 275.973 602.415 274.754 602.415ZM291.766 617.75L287.98600000000005 617.75L287.98600000000005 610.745C287.98600000000005 606.535 282.94500000000005 606.854 282.94500000000005 610.745L282.94500000000005 617.75L279.1650000000001 617.75L279.1650000000001 604L282.94500000000005 604L282.94500000000005 606.206C284.7060000000001 602.974 291.7660000000001 602.735 291.7660000000001 609.301Z " transform="matrix(1,0,0,1,-266,-594)"/></symbol><symbol id="login" viewBox="0 0 20 16"><path id="SvgjsPath1037" d="M1338.67 19.6L1338.67 16.400000000000002L1345.3300000000002 22L1338.67 27.6L1338.67 24.400000000000002L1332 24.400000000000002L1332 19.6ZM1340.33 14L1340.33 15.6L1350.33 15.6L1350.33 28.4L1340.33 28.4L1340.33 30L1352 30L1352 14Z " transform="matrix(1,0,0,1,-1332,-14)"/></symbol><symbol id="mail" viewBox="0 0 32 24"><path id="SvgjsPath1019" d="M407 2186.95L391.02 2174L422.981 2174ZM391 2194.08L391 2177.42L399.767 2184.52ZM423 2177.42L423 2194.08L414.233 2184.52ZM412.157 2186.2L407 2190.3799999999997L401.843 2186.2L391.029 2198L422.971 2198Z " transform="matrix(1,0,0,1,-391,-2174)"/></symbol><symbol id="page-test" viewBox="0 0 54 56"><path id="SvgjsPath1034" d="M898.225 3920.55C897.186 3925.6800000000003 893.155 3929.13 888.197 3929.13C883.516 3929.13 879.402 3926.05 878.003 3921.67L882.379 3921.67L882.379 3919.8L874.931 3919.8L874.931 3927.2000000000003C873.437 3925.0600000000004 872.456 3922.5400000000004 872.2090000000001 3919.8L857.2410000000001 3919.8C856.7270000000001 3919.8 856.3100000000001 3919.38 856.3100000000001 3918.8700000000003C856.3100000000001 3918.3500000000004 856.7270000000001 3917.9300000000003 857.2410000000001 3917.9300000000003L872.1610000000001 3917.9300000000003C872.221 3915.9500000000003 872.643 3914.0600000000004 873.3850000000001 3912.3300000000004L857.2410000000001 3912.3300000000004C856.7270000000001 3912.3300000000004 856.3100000000001 3911.9200000000005 856.3100000000001 3911.4000000000005C856.3100000000001 3910.8800000000006 856.7270000000001 3910.4700000000007 857.2410000000001 3910.4700000000007L874.3580000000001 3910.4700000000007C875.7700000000001 3908.120000000001 877.773 3906.1800000000007 880.176 3904.870000000001L857.2410000000001 3904.870000000001C856.7270000000001 3904.870000000001 856.3100000000001 3904.4500000000007 856.3100000000001 3903.9300000000007C856.3100000000001 3903.4200000000005 856.7270000000001 3903.000000000001 857.2410000000001 3903.000000000001L880.517 3903.000000000001C881.0310000000001 3903.000000000001 881.4480000000001 3903.420000000001 881.4480000000001 3903.9300000000007C881.4480000000001 3904.060000000001 881.421 3904.1800000000007 881.378 3904.2800000000007C883.255 3903.4600000000005 885.3240000000001 3903.0000000000005 887.5 3903.0000000000005C888.619 3903.0000000000005 889.707 3903.1300000000006 890.759 3903.3600000000006L890.759 3888.6100000000006L877.179 3875.0000000000005L847 3875.0000000000005L847 3931.0000000000005L878.695 3931.0000000000005C877.249 3929.9800000000005 875.9970000000001 3928.7100000000005 874.976 3927.2700000000004L876.793 3927.2700000000004L876.793 3923.6800000000003C878.812 3928.05 883.231 3931.0000000000005 888.197 3931.0000000000005C894.067 3931.0000000000005 898.83 3926.9500000000003 900.051 3920.9200000000005C900.153 3920.4100000000003 899.827 3919.9200000000005 899.3230000000001 3919.8200000000006C898.8130000000001 3919.7100000000005 898.3280000000001 3920.0400000000004 898.2250000000001 3920.5500000000006ZM888.897 3889.93L875.8620000000001 3889.93L875.8620000000001 3876.87ZM880.517 3895.53C881.0310000000001 3895.53 881.4480000000001 3895.9500000000003 881.4480000000001 3896.4700000000003C881.4480000000001 3896.9800000000005 881.0310000000001 3897.4 880.517 3897.4L857.2410000000001 3897.4C856.7270000000001 3897.4 856.3100000000001 3896.98 856.3100000000001 3896.4700000000003C856.3100000000001 3895.9500000000003 856.7270000000001 3895.53 857.2410000000001 3895.53ZM866.552 3888.07C867.066 3888.07 867.4830000000001 3888.48 867.4830000000001 3889C867.4830000000001 3889.52 867.066 3889.93 866.552 3889.93L857.241 3889.93C856.727 3889.93 856.31 3889.52 856.31 3889C856.31 3888.48 856.727 3888.07 857.241 3888.07ZM899.138 3912.62C897.042 3908.46 892.8960000000001 3905.7999999999997 888.197 3905.7999999999997C882.51 3905.7999999999997 877.452 3909.5299999999997 875.899 3914.87C875.756 3915.37 876.039 3915.89 876.533 3916.0299999999997C877.027 3916.18 877.544 3915.89 877.687 3915.39C878.988 3910.92 883.408 3907.67 888.197 3907.67C892.447 3907.67 896.168 3910.25 897.815 3914.2000000000003L893.552 3914.2000000000003L893.552 3916.07C893.553 3916.07 899.1370000000001 3916.07 899.138 3916.07C899.139 3916.07 899.14 3916.07 899.1410000000001 3916.07L901.0000000000001 3916.07L901.0000000000001 3908.6000000000004L899.1380000000001 3908.6000000000004Z " transform="matrix(1,0,0,1,-847,-3875)"/></symbol><symbol id="phone" viewBox="0 0 33 37"><path id="SvgjsPath1016" d="M412.841 2040.51C401.798 2045.57 384.657 2012.19 395.451 2006.56L398.60900000000004 2005L403.84400000000005 2015.23L400.72300000000007 2016.77C397.44200000000006 2018.54 404.27600000000007 2031.91 407.63200000000006 2030.28C407.7680000000001 2030.22 410.7150000000001 2028.77 410.72600000000006 2028.76L416.0040000000001 2038.96C415.9920000000001 2038.97 413.02200000000005 2040.43 412.84100000000007 2040.51ZM413.24 2011.28C415.564 2011.98 417.62600000000003 2013.56 418.87 2015.86C420.115 2018.1699999999998 420.309 2020.76 419.616 2023.09L416.926 2022.29C417.413 2020.6499999999999 417.275 2018.83 416.39799999999997 2017.2C415.52399999999994 2015.5800000000002 414.073 2014.47 412.436 2013.98ZM411.838 2016C412.956 2016.33 413.95000000000005 2017.1 414.548 2018.21C415.148 2019.32 415.242 2020.56 414.908 2021.69L410.535 2020.38ZM413.841 2009.26C416.681 2010.11 419.2 2012.04 420.722 2014.86C422.24199999999996 2017.6799999999998 422.479 2020.85 421.63399999999996 2023.6899999999998L424.39199999999994 2024.5199999999998C425.44899999999996 2020.9599999999998 425.15399999999994 2017.0099999999998 423.2509999999999 2013.4899999999998C421.3539999999999 2009.9699999999998 418.20899999999995 2007.5599999999997 414.66399999999993 2006.4999999999998Z " transform="matrix(1,0,0,1,-392,-2005)"/></symbol><symbol id="profile" viewBox="0 0 32 32"><path id="SvgjsPath1010" d="M420.754 1455.13C416.172 1454.0700000000002 411.90700000000004 1453.14 413.97200000000004 1449.24C420.261 1437.35 415.639 1431 409.00000000000006 1431C402.22900000000004 1431 397.72300000000007 1437.6 404.0280000000001 1449.24C406.1550000000001 1453.16 401.7290000000001 1454.09 397.2460000000001 1455.13C393.1520000000001 1456.0700000000002 392.9990000000001 1458.1100000000001 393.0120000000001 1461.67L393.0180000000001 1463L424.9800000000001 1463L424.98500000000007 1461.71C425.0010000000001 1458.1200000000001 424.8620000000001 1456.08 420.7540000000001 1455.13Z " transform="matrix(1,0,0,1,-393,-1431)"/></symbol><symbol id="quote" viewBox="0 0 55 46"><path id="SvgjsPath1007" d="M1097.99 381.99L1120.42 381.99L1120.42 358.915L1109.29 358.915L1120.42 336.00800000000004L1111.78 336.00800000000004L1097.99 358.915ZM1130.06 358.915L1143.35 336.00800000000004L1151.99 336.00800000000004L1140.52 358.915L1151.99 358.915L1151.99 381.99L1130.06 381.99Z " transform="matrix(1,0,0,1,-1097,-336)"/></symbol><symbol id="restore" viewBox="0 0 20 15"><path id="SvgjsPath1007" d="M1409.5 95.5L1405.78 99.6408L1402 95.5L1404.5 95.5C1404.5 91.3583 1407.86 88 1412 88C1414 88 1415.8 88.785 1417.15 90.0567L1415.48 91.9158C1414.58 91.0408 1413.35 90.5 1412 90.5C1409.24 90.5 1407 92.7425 1407 95.5ZM1418.22 91.3592L1414.5 95.5L1417 95.5C1417 98.2575 1414.76 100.5 1412 100.5C1410.65 100.5 1409.42 99.9584 1408.52 99.0842L1406.85 100.943C1408.1999999999998 102.215 1410 103 1412 103C1416.14 103 1419.5 99.6417 1419.5 95.5L1422 95.5Z " transform="matrix(1,0,0,1,-1402,-88)"/></symbol><symbol id="search" viewBox="0 0 20 20"><path id="SvgjsPath1040" d="M1424.99 107.4L1419.66 102.105C1420.44 100.884 1420.89 99.4383 1420.89 97.8892C1420.89 93.54 1417.3300000000002 90 1412.95 90C1408.57 90 1405.01 93.54 1405.01 97.89C1405.01 102.241 1408.57 105.781 1412.95 105.781C1414.43 105.781 1415.82 105.375 1417.01 104.67L1422.3799999999999 110ZM1407.97 97.89C1407.97 95.1625 1410.2 92.9416 1412.95 92.9416C1415.7 92.9416 1417.93 95.1617 1417.93 97.89C1417.93 100.619 1415.7 102.839 1412.95 102.839C1410.2 102.839 1407.97 100.619 1407.97 97.89Z " transform="matrix(1,0,0,1,-1405,-90)"/></symbol><symbol id="settings" viewBox="0 0 16 16"><path id="SvgjsPath1034" d="M900 23.0773L900 20.922700000000003C898.899 20.5314 898.205 20.421300000000002 897.854 19.576700000000002L897.854 19.576000000000004C897.503 18.728700000000003 897.921 18.153300000000005 898.4190000000001 17.104700000000005L896.8950000000001 15.581300000000004C895.8550000000001 16.076000000000004 895.2730000000001 16.498000000000005 894.4240000000001 16.146000000000004L894.4230000000001 16.146000000000004C893.5770000000001 15.795400000000004 893.4670000000001 15.095300000000005 893.0770000000001 14.000000000000004L890.9230000000001 14.000000000000004C890.5350000000001 15.090000000000003 890.4230000000001 15.794700000000004 889.5770000000001 16.146000000000004L889.5760000000001 16.146000000000004C888.7290000000002 16.498000000000005 888.1550000000001 16.080700000000004 887.1050000000001 15.581300000000004L885.5810000000001 17.104700000000005C886.0780000000001 18.150000000000006 886.4980000000002 18.727300000000003 886.1460000000002 19.576000000000004C885.7950000000002 20.423300000000005 885.0900000000001 20.534700000000004 884.0000000000002 20.922700000000003L884.0000000000002 23.0773C885.0880000000002 23.464000000000002 885.7950000000002 23.576600000000003 886.1460000000002 24.4233C886.4990000000001 25.278000000000002 886.0700000000002 25.8673 885.5810000000001 26.8947L887.1050000000001 28.4187C888.1460000000002 27.9233 888.7270000000001 27.502000000000002 889.5760000000001 27.854000000000003L889.5770000000001 27.854000000000003C890.4230000000001 28.204700000000003 890.5340000000001 28.906700000000004 890.9230000000001 30.000000000000004L893.0770000000001 30.000000000000004C893.4650000000001 28.9093 893.5770000000001 28.206700000000005 894.4290000000001 27.852000000000004C895.2710000000001 27.502700000000004 895.8430000000001 27.919300000000003 896.8950000000001 28.419400000000003L898.4180000000001 26.895400000000002C897.9230000000001 25.8533 897.5010000000001 25.273300000000003 897.8530000000001 24.4247C898.2040000000001 23.5773 898.9110000000001 23.4647 900.0000000000001 23.0773ZM892 25.3333C890.159 25.3333 888.667 23.840700000000002 888.667 22C888.667 20.1593 890.159 18.6667 892 18.6667C893.841 18.6667 895.333 20.159299999999998 895.333 22C895.333 23.8407 893.841 25.3333 892 25.3333ZM894 22C894 23.1027 893.103 24 892 24C890.897 24 890 23.1027 890 22C890 20.8974 890.897 20 892 20C893.103 20 894 20.8974 894 22Z " transform="matrix(1,0,0,1,-884,-14)"/></symbol><symbol id="twitter" viewBox="0 0 32 30"><path id="SvgjsPath1013" d="M212.79 594L212.79 624L243.033 624L243.033 594ZM236.558 605.546C236.82 611.3180000000001 232.482 617.753 224.801 617.753C222.46499999999997 617.753 220.291 617.0740000000001 218.45999999999998 615.909C220.65499999999997 616.165 222.84499999999997 615.561 224.58399999999997 614.21C222.77399999999997 614.176 221.24599999999998 612.99 220.72099999999998 611.36C221.36999999999998 611.482 222.00699999999998 611.446 222.58799999999997 611.29C220.59899999999996 610.894 219.22599999999997 609.116 219.27099999999996 607.2149999999999C219.82699999999997 607.5219999999999 220.46599999999995 607.7069999999999 221.14299999999997 607.7289999999999C219.30199999999996 606.507 218.77999999999997 604.0949999999999 219.86299999999997 602.2499999999999C221.90299999999996 604.7319999999999 224.95099999999996 606.3659999999999 228.38899999999998 606.5379999999999C227.78499999999997 603.9709999999999 229.748 601.4999999999999 232.41899999999998 601.4999999999999C233.60799999999998 601.4999999999999 234.683 601.9979999999999 235.438 602.7959999999999C236.38 602.612 237.266 602.271 238.065 601.8009999999999C237.757 602.7599999999999 237.1 603.564 236.24699999999999 604.0709999999999C237.08399999999997 603.9709999999999 237.88099999999997 603.7509999999999 238.62199999999999 603.425C238.06799999999998 604.245 237.36599999999999 604.967 236.558 605.5459999999999Z " transform="matrix(1,0,0,1,-212,-594)"/></symbol><symbol id="user-test" viewBox="0 0 54 51"><path id="SvgjsPath1037" d="M898.317 3754.98C897.313 3759.9 893.417 3763.21 888.624 3763.21C884.099 3763.21 880.123 3760.26 878.7710000000001 3756.05L882.1 3756.05L882.1 3754.26L875.8000000000001 3754.26L875.8000000000001 3760.53L877.6 3760.53L877.6 3757.98C879.552 3762.17 883.823 3765 888.624 3765C894.298 3765 898.902 3761.12 900.083 3755.34C900.1809999999999 3754.8500000000004 899.866 3754.38 899.379 3754.28C898.885 3754.19 898.417 3754.5 898.317 3754.98ZM899.2 3747.38C897.1750000000001 3743.4 893.166 3740.84 888.624 3740.84C883.126 3740.84 878.2370000000001 3744.42 876.736 3749.54C876.597 3750.0099999999998 876.871 3750.5099999999998 877.349 3750.65C877.827 3750.79 878.326 3750.51 878.464 3750.04C879.7220000000001 3745.75 883.995 3742.63 888.624 3742.63C892.7330000000001 3742.63 896.3290000000001 3745.11 897.921 3748.8900000000003L893.8000000000001 3748.8900000000003L893.8000000000001 3750.6800000000003L901.0000000000001 3750.6800000000003L901.0000000000001 3743.53L899.2000000000002 3743.53ZM874.186 3747.25C874.191 3747.24 874.1940000000001 3747.23 874.1990000000001 3747.21C874.4050000000001 3746.69 874.638 3746.17 874.9000000000001 3745.68C877.5340000000001 3740.68 882.7950000000001 3737.2599999999998 888.8500000000001 3737.2599999999998C889.1560000000002 3737.2599999999998 889.4550000000002 3737.29 889.7560000000001 3737.31C889.8040000000001 3737.18 889.8600000000001 3737.0499999999997 889.9060000000001 3736.92C891.176 3736.34 892.0000000000001 3735.09 892.0000000000001 3733.6800000000003L892.0000000000001 3730.11C892.0000000000001 3729.2400000000002 891.6760000000002 3728.4100000000003 891.1000000000001 3727.76L891.1000000000001 3723C891.1500000000001 3722.51 891.3480000000002 3719.58 889.2170000000001 3717.16C887.3690000000001 3715.06 884.3690000000001 3714 880.3000000000001 3714C876.2310000000001 3714 873.2310000000001 3715.06 871.383 3717.16C870.091 3718.62 869.658 3720.27 869.5250000000001 3721.46C867.9830000000001 3720.67 866.1650000000001 3720.26 864.1000000000001 3720.26C854.7500000000001 3720.26 854.2050000000002 3728.19 854.2000000000002 3728.32L854.2000000000002 3732.4100000000003C853.6170000000002 3733.0400000000004 853.3000000000002 3733.7700000000004 853.3000000000002 3734.5000000000005L853.3000000000002 3737.5900000000006C853.3000000000002 3738.5500000000006 853.7350000000001 3739.4500000000007 854.4790000000002 3740.0600000000004C855.2210000000001 3742.8400000000006 857.0490000000002 3744.9500000000003 857.7590000000001 3745.6900000000005L857.7590000000001 3748.1400000000003C857.7590000000001 3748.84 857.3730000000002 3749.4900000000002 856.7060000000001 3749.8500000000004L850.7180000000001 3753.59C848.4250000000001 3754.83 847.0000000000001 3757.2200000000003 847.0000000000001 3759.81L847.0000000000001 3763.21L877.0080000000002 3763.21C874.5820000000001 3760.46 873.1000000000001 3756.86 873.1000000000001 3752.92C873.1000000000001 3751.51 873.3050000000002 3750.15 873.6580000000001 3748.85C873.8060000000002 3748.31 873.9840000000002 3747.77 874.1860000000001 3747.25ZM848.8 3761.42L848.8 3759.81C848.8 3757.87 849.865 3756.09 851.5799999999999 3755.16L851.6279999999999 3755.1299999999997L851.674 3755.0999999999995L857.6229999999999 3751.3899999999994C858.837 3750.7099999999996 859.56 3749.4999999999995 859.56 3748.1399999999994L859.56 3744.9699999999993L859.06 3744.4499999999994C858.5569999999999 3743.9299999999994 856.8679999999999 3742.0299999999993 856.2199999999999 3739.5999999999995L856.0699999999999 3739.0499999999993L855.622 3738.6799999999994C855.29 3738.4099999999994 855.0999999999999 3738.0099999999993 855.0999999999999 3737.5899999999992L855.0999999999999 3734.499999999999C855.0999999999999 3734.229999999999 855.2509999999999 3733.919999999999 855.5269999999999 3733.619999999999L855.9999999999999 3733.1099999999988L855.9999999999999 3728.3799999999987C856.0699999999999 3727.5599999999986 856.8109999999999 3722.049999999999 864.0999999999999 3722.049999999999C866.2529999999999 3722.049999999999 868.0669999999999 3722.549999999999 869.4999999999999 3723.5199999999986L869.4999999999999 3727.7599999999984C868.9169999999999 3728.4099999999985 868.5999999999999 3729.229999999998 868.5999999999999 3730.1099999999983L868.5999999999999 3733.6799999999985C868.5999999999999 3733.9599999999987 868.6309999999999 3734.2199999999984 868.6909999999999 3734.4799999999987C868.8699999999999 3735.259999999999 869.309 3735.9599999999987 869.9449999999999 3736.4599999999987C869.9459999999999 3736.4599999999987 869.9459999999999 3736.469999999999 869.9469999999999 3736.469999999999C869.9529999999999 3736.489999999999 869.9599999999999 3736.509999999999 869.9639999999999 3736.529999999999C870.015 3736.7099999999987 870.0699999999999 3736.909999999999 870.1379999999999 3737.139999999999L870.2049999999999 3737.349999999999C870.2149999999999 3737.389999999999 870.2259999999999 3737.409999999999 870.2359999999999 3737.449999999999C870.2929999999999 3737.619999999999 870.3519999999999 3737.789999999999 870.4129999999999 3737.959999999999C870.4409999999999 3738.039999999999 870.4669999999999 3738.129999999999 870.4959999999999 3738.199999999999C870.5499999999998 3738.349999999999 870.6019999999999 3738.469999999999 870.6519999999998 3738.599999999999C870.6949999999998 3738.709999999999 870.7379999999998 3738.809999999999 870.7819999999998 3738.919999999999C870.8169999999998 3738.9899999999993 870.8509999999998 3739.079999999999 870.8839999999998 3739.149999999999L870.8879999999998 3739.149999999999C870.9049999999999 3739.189999999999 870.9209999999998 3739.229999999999 870.9379999999998 3739.2599999999993L870.9349999999997 3739.2599999999993C870.9569999999998 3739.3099999999995 870.9799999999997 3739.359999999999 871.0019999999997 3739.4099999999994C871.0899999999997 3739.5999999999995 871.1779999999998 3739.7899999999995 871.2679999999997 3739.9699999999993C871.2829999999997 3739.9999999999995 871.2969999999997 3740.0299999999993 871.3119999999997 3740.0599999999995C871.3359999999997 3740.1099999999997 871.3599999999997 3740.1499999999996 871.3849999999996 3740.1899999999996C871.5249999999996 3740.47 871.6629999999997 3740.72 871.7999999999996 3740.9599999999996C871.8169999999997 3740.99 871.8319999999997 3741.0199999999995 871.8469999999996 3741.0399999999995C872.3649999999997 3741.9399999999996 872.8379999999996 3742.5999999999995 873.0989999999996 3742.9399999999996L873.0999999999996 3745.2499999999995C872.6999999999996 3746.0599999999995 872.3619999999995 3746.9199999999996 872.0879999999996 3747.8099999999995C872.0109999999996 3747.8699999999994 871.9439999999996 3747.9299999999994 871.8609999999996 3747.9799999999996L863.8309999999997 3752.3299999999995C863.6089999999997 3752.4499999999994 863.4039999999997 3752.5999999999995 863.1959999999997 3752.7299999999996C863.0989999999997 3752.7999999999997 862.9939999999997 3752.8499999999995 862.8999999999996 3752.9199999999996C862.8839999999997 3752.93 862.8709999999996 3752.95 862.8539999999996 3752.9599999999996C860.8249999999996 3754.47 859.5999999999996 3756.8499999999995 859.5999999999996 3759.4199999999996L859.5999999999996 3761.4199999999996Z " transform="matrix(1,0,0,1,-847,-3714)"/></symbol><symbol id="wait-time" viewBox="0 0 40 40"><title>icon</title><desc>Created with Avocode.</desc><path id="SvgjsPath1019" d="M1089 363C1089 374.045 1080.04 383 1068.99 383C1067.19 383 1065.45 382.74 1063.79 382.295L1064.8999999999999 379.13800000000003C1066.2099999999998 379.47 1067.58 379.66700000000003 1068.9899999999998 379.66700000000003C1078.1899999999998 379.66700000000003 1085.6699999999998 372.19000000000005 1085.6699999999998 363C1085.6699999999998 353.81 1078.1899999999998 346.33299999999997 1068.9899999999998 346.33299999999997C1065.2699999999998 346.33299999999997 1061.8399999999997 347.573 1059.0599999999997 349.64899999999994L1062.4799999999998 353.06299999999993L1050.7899999999997 355.31999999999994L1053.0499999999997 343.63199999999995L1056.6799999999998 347.2699999999999C1060.08 344.6069999999999 1064.34 342.99999999999994 1068.9899999999998 342.99999999999994C1080.0399999999997 342.99999999999994 1088.9999999999998 351.9549999999999 1088.9999999999998 362.99999999999994ZM1070.67 353L1070.67 363L1079 363L1079 366.333L1067.33 366.333L1067.33 353ZM1054.78 371.667C1055.34 372.577 1055.98 373.428 1056.69 374.21299999999997L1054.3500000000001 376.602C1053.38 375.55499999999995 1052.5200000000002 374.407 1051.7900000000002 373.17199999999997ZM1056.82 378.848L1059.1799999999998 376.44300000000004C1059.9899999999998 377.03700000000003 1060.86 377.557 1061.7699999999998 377.99800000000005L1060.6599999999999 381.16300000000007C1059.29 380.5350000000001 1057.9999999999998 379.75700000000006 1056.82 378.84800000000007ZM1053.33 368.662L1050.34 370.17199999999997C1049.83 368.86499999999995 1049.47 367.493 1049.25 366.07099999999997L1052.58 365.80699999999996C1052.74 366.78999999999996 1053 367.74299999999994 1053.33 368.662ZM1049 362.748L1052.36 362.48C1052.3999999999999 361.308 1052.57 360.17 1052.84 359.06800000000004L1049.3799999999999 359.06800000000004C1049.1399999999999 360.25800000000004 1049.02 361.49000000000007 1048.9999999999998 362.74800000000005Z " fill-opacity="1" transform="matrix(1,0,0,1,-1049,-343)"/></symbol><symbol id="youtube" viewBox="0 0 31 30"><path id="SvgjsPath1019" d="M321.194 594L321.194 624L351.437 624L351.437 594ZM333.795 605.666L340.51500000000004 608.994L333.795 612.3340000000001ZM342.711 616.346C339.683 616.551 332.94 616.55 329.91700000000003 616.346C326.641 616.125 326.259 614.154 326.23400000000004 609C326.259 603.838 326.64500000000004 601.875 329.91900000000004 601.654C332.94200000000006 601.45 339.68500000000006 601.449 342.713 601.654C345.98900000000003 601.875 346.37100000000004 603.846 346.396 609C346.37100000000004 614.163 345.985 616.125 342.711 616.346Z " transform="matrix(1,0,0,1,-321,-594)"/></symbol></svg>