<?xml version="1.0" encoding="utf-8"?>
<!-- Generator: Adobe Illustrator 18.1.1, SVG Export Plug-In . SVG Version: 6.00 Build 0)  -->
<!DOCTYPE svg PUBLIC "-//W3C//DTD SVG 1.1//EN" "http://www.w3.org/Graphics/SVG/1.1/DTD/svg11.dtd">
<svg version="1.1" id="Layer_1" xmlns="http://www.w3.org/2000/svg" xmlns:xlink="http://www.w3.org/1999/xlink" x="0px" y="0px"
	 width="512px" height="512px" viewBox="-223 25 512 512" enable-background="new -223 25 512 512" xml:space="preserve">
<path d="M111.9,306.6c0.1-9.3,0.1-29.9-1.6-50.1c0.1,8.5,0.4,16.3,0.7,20.5C111.1,279.2,111.5,291.5,111.9,306.6z"/>
<path d="M33.7,130.8c0.3-6.6-0.1-13.6,5.5-13.2c2.7,0.2,7.3,0.9,13,2c6.3,1.3,5.4,35.5,5.4,35.5l22.9,8.9
	c0.7-24.8-5.4-53.5-11.6-55.3c-10.4-3-25.5-9.1-40.6-5.8c-10.1,2.2-12.8,39.2-12.8,39.2l17.6,4.6C33.1,146.8,33.3,141.3,33.7,130.8z
	"/>
<path d="M-72.7,256c3.7,1.4,9.8,3.4,17.1,5.7c5.4-15,14.6-26.5,14.6-26.5s2.1-5.6,12.8-3.3
	c10.7,2.2,11.1,7.1,11.1,7.1s-6.9,11.2-13.6,26.3c-0.4,0.9-1,2.1-1.4,3.5c16.9,4.9,33.2,9.3,37.9,9.7c9.2,0.9,32.4,1.9,36.9-20.5
	c4.4-22,8.7-35.5,12.3-43.9c0.7-1.8,1.4-3.4,1.9-4.5c1-2.3,4-6.8,8.5-11.2l0,0c0,0,0-0.1,0.1-0.1c5.9-5.9,14.3-11.6,23.6-11.6
	c0.5,0,1.1,0.1,1.8,0.2c-5.5-6.1-11.7-11.3-18.4-13.9c-1.5-0.6-56.5-22.3-73-20c-0.5,0.1-0.9,0.1-1.3,0.2c0.8-0.1,1.3-0.2,1.3-0.2
	s-37.6,0.9-62.6,25.8c-13,13-24.4,36.3-31.6,58.7C-94.8,243.3-87.6,250.5-72.7,256z"/>
<path d="M0.8,295.2c-7.4-1.4-21.2-5.1-35.8-9.5c-2.2,8.8-0.3,24-0.3,24s-2.9,6.9-14.3,4.4c-9.7-2.1-9.4-9.1-9.4-9.1
	s-2.5-14.2-0.3-26.7c-14-4.4-25.8-8.3-30.2-10c-5.2-2-9-4.8-11.8-7.9c-0.2,1.2-0.4,6.2-0.5,7.4c-9.9,70.5,10.7,100.8,12.1,107.2
	c2,8.6,39.5,26.7,75.7,39.9c21,7.7,44.5,6.2,53.8,5.5l0.7,0C42,393.1,46,322.2,48,278.8C44.9,294.7,18.6,298.4,0.8,295.2z"/>
<path d="M111.9,306.6c-0.4-15-0.7-27.3-0.9-29.7c-0.3-4.1-0.5-11.9-0.7-20.4c-1.4-18-6.1-37.4-10.1-47.5
	c-6.7-16.9-26.1,4.3-31.6,17.7C63,240.6,57.6,400.3,57.1,416.1c13.6-3.5,33-8.6,35.4-12.3c5-7.9,7.8-15.6,9-22
	c0.8-4.3,12-8.4,12-8.4s-0.8-34.5-1.5-62.3l-0.2,0.7C111.8,311.8,111.9,309.9,111.9,306.6z"/>
<path d="M161.6,237.1c0,0-2.9-34.2-3.5-40.9c-1.6-16.1-16.1-67.8-65.5-28.1l13.1,14.3c0,0,33.5-30.1,34.7,41.6
	c0.1,6.1,0.5,14.5,4.2,65.5c4,56.4-18,56.7-18,56.7l1,24c0,0,8.2-2.1,16.6-5.7c12-5.1,23.4-26.2,23.4-57.1
	C167.7,295.2,161.6,237.1,161.6,237.1z"/>
<path d="M-11.4,141.4l10.9-1.7v-9.3l2.1-7.6c0,0-10.1,4.6-13,9.2c-2.9,4.6-4.2,7.1-4.2,9.2
	C-15.6,143.5-11.4,141.4-11.4,141.4z"/>
</svg>
