<?xml version="1.0" encoding="utf-8"?>
<!-- Generator: Adobe Illustrator 18.1.1, SVG Export Plug-In . SVG Version: 6.00 Build 0)  -->
<!DOCTYPE svg PUBLIC "-//W3C//DTD SVG 1.1//EN" "http://www.w3.org/Graphics/SVG/1.1/DTD/svg11.dtd">
<svg version="1.1" id="Layer_1" xmlns="http://www.w3.org/2000/svg" xmlns:xlink="http://www.w3.org/1999/xlink" x="0px" y="0px"
	 width="12.8px" height="12.8px" viewBox="-1.5 0 15 15" enable-background="new 0 0 15 15" xml:space="preserve">
<g>
	<path d="M7.2,0.5C7,0.2,6.7,0,6.4,0C6.1,0,5.8,0.2,5.6,0.5L4.1,4.8h4.6L7.2,0.5z M7.2,0.5"/>
	<path d="M9.5,7.2H3.3l-1.1,3.2h8.6L9.5,7.2z M9.5,7.2"/>
	<path d="M12,11.2H0.8C0.4,11.2,0,11.6,0,12c0,0.4,0.4,0.8,0.8,0.8H12c0.4,0,0.8-0.4,0.8-0.8C12.8,11.6,12.4,11.2,12,11.2L12,11.2z
		 M12,11.2"/>
</g>
</svg>
