<?xml version="1.0" encoding="utf-8"?>
<!-- Generator: Adobe Illustrator 18.1.1, SVG Export Plug-In . SVG Version: 6.00 Build 0)  -->
<!DOCTYPE svg PUBLIC "-//W3C//DTD SVG 1.1//EN" "http://www.w3.org/Graphics/SVG/1.1/DTD/svg11.dtd">
<svg version="1.1" id="Layer_1" xmlns="http://www.w3.org/2000/svg" xmlns:xlink="http://www.w3.org/1999/xlink" x="0px" y="0px"
	 width="512px" height="512px" viewBox="-223 25 512 512" enable-background="new -223 25 512 512" xml:space="preserve">
<path fill-rule="evenodd" clip-rule="evenodd" d="M-4.2,167.9H-42l6.5-18.5c2-6,8-8.6,12.4-8.6c4.5,0,10.5,2.4,12.5,8.6L-4.2,167.9
	L-4.2,167.9z M73.7,351.8v-19.7c0-6.5,2.3-14.1,3.9-16.6H27V176.1l-94.9,0.1l-58.2,85.6v44.5h113.4v45.5H73.7L73.7,351.8z
	 M126.7,313.1c-11.6,0-20.5,8.9-20.5,20c0,11.8,8.8,20.5,20.5,20.5c11.3,0,20.5-8.7,20.5-20.5C147.1,322,138,313.1,126.7,313.1
	L126.7,313.1z M126.9,290.1c-24.1,0-43.6,19.3-43.6,43c0,24.1,19.5,43.3,43.6,43.3c23.8,0,43.4-19.3,43.4-43.3
	C170.3,309.4,150.7,290.1,126.9,290.1L126.9,290.1z M-64.9,186.7l-50.4,75.9l132.1,0.2v-76.1H-64.9L-64.9,186.7z M181.2,352.8
	l57.8-14.8v-22.4h-63.4c2.7,3.7,5.6,11.5,5.6,17.5V352.8L181.2,352.8z M82.3,307.1c9-14.9,25.5-24.9,44.4-24.9
	c19,0,35.5,10.1,44.8,25l67.4-0.1V177.4H34.8v129.7H82.3L82.3,307.1z M-150.5,313.7v22.2h130.2v-22.2H-150.5L-150.5,313.7z
	 M-149.9,342.4v30.8h10.7v-30.8H-149.9L-149.9,342.4z M-130,342.4v30.8h10.7v-30.8H-130L-130,342.4z M-110.2,342.4v30.8h10.7v-30.8
	H-110.2L-110.2,342.4z M-90.4,342.4v30.8h10.7v-30.8H-90.4L-90.4,342.4z M-70.6,342.4v30.8h10.7v-30.8H-70.6L-70.6,342.4z
	 M-50.8,342.4v30.8h10.7v-30.8H-50.8L-50.8,342.4z M-30.9,342.4v30.8h10.7v-30.8H-30.9L-30.9,342.4z"/>
</svg>
