<?xml version="1.0" encoding="utf-8"?>
<!-- Generator: Adobe Illustrator 18.1.1, SVG Export Plug-In . SVG Version: 6.00 Build 0)  -->
<!DOCTYPE svg PUBLIC "-//W3C//DTD SVG 1.1//EN" "http://www.w3.org/Graphics/SVG/1.1/DTD/svg11.dtd">
<svg version="1.1" id="Layer_1" xmlns="http://www.w3.org/2000/svg" xmlns:xlink="http://www.w3.org/1999/xlink" x="0px" y="0px"
	 width="512px" height="512px" viewBox="-223 25 512 512" enable-background="new -223 25 512 512" xml:space="preserve">


		<path d="M32,75c-114.8,0-206,92.7-206,206s91.2,206,206,206c113.1,0,206-92.7,206-206S145.1,75,32,75z M-57.5,349.7
			c-22,0-38.8-8.6-47.3-20.6l11.8-13.7c8.4,10.3,22,15.4,33.8,15.4c16.9,0,25.3-6.9,25.3-18.9s-10.1-17.2-27-17.2
			c-5.1,0-11.8,0-13.5,0v-20.6c1.7,0,10.1,0,13.5,0c15.2,0,25.3-5.2,25.3-17.2c0-12-11.8-17.2-25.3-17.2c-11.8,0-23.6,5.2-32.1,13.7
			l-10.1-13.7c10.1-12,25.3-20.6,45.6-20.6c27,0,45.6,12,45.6,34.3c0,17.2-13.5,27.5-27,29.2c11.8,1.7,28.7,10.3,28.7,30.9
			C-11.9,334.2-28.8,349.7-57.5,349.7z M67.5,347.9h-22v-97.8l-20.3,20.6L13.4,257l35.5-36h18.6C67.5,220.9,67.5,347.9,67.5,347.9z
			 M153.6,347.9h-22v-97.8L113,272.4l-11.8-13.7l35.5-36h18.6v125.3H153.6z"/>


</svg>
