<?xml version="1.0" encoding="utf-8"?>
<!-- Generator: Adobe Illustrator 18.1.1, SVG Export Plug-In . SVG Version: 6.00 Build 0)  -->
<!DOCTYPE svg PUBLIC "-//W3C//DTD SVG 1.1//EN" "http://www.w3.org/Graphics/SVG/1.1/DTD/svg11.dtd">
<svg version="1.1" id="Layer_1" xmlns="http://www.w3.org/2000/svg" xmlns:xlink="http://www.w3.org/1999/xlink" x="0px" y="0px"
	 width="512px" height="512px" viewBox="-223 25 512 512" enable-background="new -223 25 512 512" xml:space="preserve">
<g>
	<path d="M117.9,302.4c5.1-5.1,5.1-13.3,0-18.3c-5.1-5.1-13.3-5.1-18.3,0c-5.1,5.1-5.1,13.3,0,18.3
		C104.6,307.5,112.8,307.5,117.9,302.4z M113.5,285.6l2.9,2.9l-4.8,4.8l-2.9-2.9L113.5,285.6z"/>
	<path d="M99.6,322.7c-5.1,5.1-5.1,13.3,0,18.3c5.1,5.1,13.3,5.1,18.3,0c5.1-5.1,5.1-13.3,0-18.3
		C112.8,317.7,104.6,317.7,99.6,322.7z M105.9,331.9l-4.8-4.8l2.9-2.9l4.8,4.8L105.9,331.9z"/>
	<rect x="91.5" y="238.5" width="34.6" height="4.8"/>
	<path d="M-51,242c-11.7,11.7-11.7,82.7,0.2,94.6c12.7,12.7,101.1,12.7,113.7,0c11.8-11.8,11.9-82.8,0.2-94.6
		C51.3,230.1-38.6,229.6-51,242z"/>
	<path d="M32.6,75c-113.8,0-206,92.2-206,206s92.2,206,206,206s206-92.2,206-206S146.4,75,32.6,75z M146.4,365.8H-81.1V211.2H23.6
		l-35.9-35.8l8.2-8.2l36.7,36.7l36.8-36.8l8.2,8.2l-35.9,35.9h104.7V365.8z"/>
	<rect x="91.5" y="249.2" width="34.6" height="4.8"/>
	<rect x="91.5" y="260.1" width="34.6" height="4.8"/>
</g>
</svg>
