<svg version="1.1" id="Layer_1" xmlns="http://www.w3.org/2000/svg" xmlns:xlink="http://www.w3.org/1999/xlink" x="0" y="0" xml:space="preserve" height="18" width="18"><path fill="#60B0B8" d="M9 18c-4.96 0-9-4.04-9-9s4.04-9 9-9 9 4.04 9 9-4.04 9-9 9zM9 1.24C4.72 1.24 1.24 4.72 1.24 9S4.72 16.76 9 16.76s7.76-3.48 7.76-7.76S13.28 1.24 9 1.24z"/><defs><path id="SVGID_1_" d="M13.44 9.66l-3.41 3.51a.915.915 0 0 1-1.31.01L8.53 13a.974.974 0 0 1-.03-1.33l1.37-1.52H5.28c-.51 0-.93-.42-.93-.93v-.64c0-.51.42-.93.93-.93h4.58L8.44 6.11a.961.961 0 0 1 .03-1.32l.18-.19c.35-.35.97-.34 1.31.02l3.49 3.71c.35.38.34.97-.01 1.33"/></defs><use xlink:href="#SVGID_1_" overflow="visible" fill-rule="evenodd" clip-rule="evenodd" fill="#60b0b8"/><clipPath id="SVGID_2_"><use xlink:href="#SVGID_1_" overflow="visible"/></clipPath></svg>