<svg xmlns="http://www.w3.org/2000/svg" xmlns:xlink="http://www.w3.org/1999/xlink" width="63" height="80" viewBox="0 0 63 80"><defs><path id="vyisa" d="M171.84 1013.28v-.52a9.9 9.9 0 0 1-2.28-5.81 4.95 4.95 0 1 1 9.88 0c0 1.8-.95 4.38-2.39 5.93v.37c3.25.84 5.75 3.66 5.94 10.8l.01.05v.21l-.03.01c-.14 1.1-.93 6.4-2.83 7.37-.15.08-.3.14-.46.2v18.62s0 1.49-1.56 1.49h-2.1s-1.57 0-1.57-1.49v-18.03a.53.53 0 0 0-.4 0v18.03s0 1.49-1.57 1.49h-1.9s-1.56 0-1.56-1.49v-18.76c-.04-.03-.1-.04-.15-.06-2.11-1.09-2.85-7.59-2.85-7.59l.01-.07H166c.08-7.04 2.6-9.87 5.84-10.75"/><path id="vyisb" d="M121.5 1046.5l57-73"/></defs><g><g transform="translate(-120 -972)"><use fill="#28265f" xlink:href="#vyisa"/></g><g transform="translate(-120 -972)"><use fill="#fff" fill-opacity="0" stroke="#28265f" stroke-linecap="square" stroke-miterlimit="50" stroke-width="2" xlink:href="#vyisb"/></g></g></svg>